# This file uses centimeters as units for non-parametric coordinates.

mtllib newSou.mtl
g default
v 6.672156 3.383897 5.339072
v 4.725432 3.406127 4.288964
v 4.725432 3.384425 6.466019
v 6.672158 3.387946 4.332772
v -2.407181 3.151552 8.745916
v 0.025619 3.365117 6.835160
v -2.407182 3.365114 6.644085
v 0.025621 3.151552 9.066199
v -4.674192 3.151551 7.806889
v -4.674195 3.365114 6.466022
v 2.458423 3.151552 8.745913
v 2.458422 3.369878 6.644083
v 8.165934 3.154699 4.366387
v 6.672159 3.161572 6.313113
v 0.025619 3.607568 4.183201
v 2.458420 3.453995 4.237947
v -2.407185 3.481791 4.237948
v -4.674198 3.387842 4.288965
v 6.672158 3.387920 2.210077
v 9.104961 3.151550 2.099375
v 0.025619 3.738805 2.512527
v 2.458423 3.557426 2.401817
v -2.407182 3.609981 2.401817
v -4.674191 3.447979 2.298661
v 6.672156 3.411448 -0.282129
v 9.425251 3.151550 -0.333425
v 0.025621 3.710958 -0.158296
v 2.458421 3.768243 -0.203618
v -2.407184 3.836802 -0.203617
v -4.674197 3.554600 -0.245857
v 9.104966 3.151550 -2.766229
v 6.672161 3.504969 -2.714963
v 0.025618 3.801682 -2.574898
v 2.458423 3.630720 -2.626168
v -2.407182 3.680003 -2.626168
v -4.674191 3.476728 -2.673939
v 8.165939 3.170886 -5.033241
v 6.672159 3.504976 -5.027597
v 0.025618 3.679329 -5.002486
v 2.458423 3.569134 -5.011680
v -2.407182 3.462085 -5.011679
v -4.674198 3.384031 -5.020242
v 6.672161 3.489969 -5.827432
v 6.672162 3.216692 -6.979968
v 2.458423 3.434945 -7.027449
v 0.025619 3.454787 -7.054862
v -2.407182 3.389682 -7.027449
v -4.674199 3.365119 -7.001903
v 2.458421 3.365116 -8.499089
v 0.025617 3.375877 -8.526283
v -2.407185 3.365116 -8.499086
v -4.674194 3.151550 -8.473742
v 4.725436 3.170242 -8.473742
v 2.458423 3.151550 -9.412770
v 0.025620 3.151550 -9.733054
v -2.407182 3.151550 -9.412770
v -6.620924 3.365116 -5.827431
v -6.620924 3.365118 -5.027596
v -6.620919 3.365112 -2.714962
v -6.620921 3.365119 -0.282129
v -6.620921 3.365115 2.210079
v -6.620921 3.365113 4.332773
v -6.620923 3.365119 5.339073
v -6.620919 3.151551 6.313116
v 4.725432 3.501780 -7.001904
v 4.725435 3.616360 -5.020244
v 4.725432 3.652110 -2.673941
v 4.725432 3.635755 -0.245858
v 4.725430 3.439964 2.298660
v 4.725433 3.154105 7.806888
v -6.620921 3.151550 -6.979966
v -8.114696 3.151550 -5.033239
v -9.053723 3.151550 -2.766228
v -9.374006 3.151550 -0.333425
v -9.053721 3.151550 2.099377
v -8.114696 3.151551 4.366389
vt 0.115633 0.749594
vt 0.223768 0.708494
vt 0.208856 0.821715
vt 0.122188 0.697330
vt 0.564397 0.990000
vt 0.450845 0.873587
vt 0.578831 0.880248
vt 0.435486 0.990000
vt 0.689033 0.956750
vt 0.698035 0.886197
vt 0.310987 0.956617
vt 0.325510 0.846862
vt 0.043343 0.689241
vt 0.107742 0.801295
vt 0.469099 0.735246
vt 0.341943 0.721648
vt 0.595376 0.754994
vt 0.713011 0.772957
vt 0.136358 0.586977
vt 0.010065 0.564539
vt 0.480583 0.648192
vt 0.354508 0.625994
vt 0.607931 0.659291
vt 0.726972 0.669487
vt 0.153270 0.457247
vt 0.010000 0.435519
vt 0.498702 0.509528
vt 0.372658 0.490269
vt 0.625485 0.523564
vt 0.744361 0.537004
vt 0.043318 0.310929
vt 0.170490 0.330723
vt 0.515463 0.383907
vt 0.389178 0.364329
vt 0.642489 0.397761
vt 0.761120 0.410689
vt 0.107620 0.198945
vt 0.186947 0.210816
vt 0.532219 0.257809
vt 0.405908 0.240445
vt 0.659208 0.273477
vt 0.777025 0.288629
vt 0.192724 0.169335
vt 0.199436 0.107672
vt 0.419688 0.135285
vt 0.546395 0.150605
vt 0.672856 0.168590
vt 0.790512 0.185416
vt 0.429840 0.058768
vt 0.556444 0.073965
vt 0.682660 0.092107
vt 0.800914 0.108089
vt 0.311526 0.043359
vt 0.436007 0.010000
vt 0.564827 0.010165
vt 0.689321 0.043405
vt 0.883513 0.259868
vt 0.878264 0.301469
vt 0.862790 0.421697
vt 0.846215 0.548371
vt 0.828946 0.678146
vt 0.814019 0.788465
vt 0.806805 0.840669
vt 0.800939 0.892547
vt 0.301712 0.121681
vt 0.288233 0.224868
vt 0.271711 0.346497
vt 0.254918 0.472529
vt 0.237084 0.605024
vt 0.199215 0.892296
vt 0.892320 0.199088
vt 0.956762 0.310984
vt 0.989985 0.435603
vt 0.990000 0.564528
vt 0.956582 0.689102
vt 0.892125 0.800982
vn 0.117288 0.988880 0.091430
vn 0.019580 0.999627 0.019032
vn 0.047486 0.993579 0.102689
vn 0.019580 0.999627 0.019032
vn 0.117288 0.988880 0.091430
vn 0.070847 0.997475 0.005006
vn -0.020776 0.994857 0.099133
vn -0.000620 0.995364 0.096179
vn -0.020613 0.995612 0.091280
vn -0.000620 0.995364 0.096179
vn -0.020776 0.994857 0.099133
vn 0.000000 0.995450 0.095289
vn -0.058085 0.988680 0.138336
vn -0.020613 0.995612 0.091280
vn -0.051271 0.993699 0.099666
vn -0.020613 0.995612 0.091280
vn -0.058085 0.988680 0.138336
vn -0.020776 0.994857 0.099133
vn 0.000000 0.995450 0.095289
vn 0.020120 0.994721 0.100621
vn -0.000620 0.995364 0.096179
vn 0.020120 0.994721 0.100621
vn 0.019776 0.995784 0.089568
vn -0.000620 0.995364 0.096179
vn 0.117288 0.988880 0.091430
vn 0.173454 0.982720 0.064616
vn 0.070847 0.997475 0.005006
vn 0.179111 0.963007 0.201339
vn 0.173454 0.982720 0.064616
vn 0.117288 0.988880 0.091430
vn 0.019776 0.995784 0.089568
vn 0.003518 0.997514 0.070375
vn -0.000620 0.995364 0.096179
vn 0.003518 0.997514 0.070375
vn 0.019776 0.995784 0.089568
vn 0.039531 0.998201 0.045070
vn -0.000620 0.995364 0.096179
vn 0.003518 0.997514 0.070375
vn -0.020613 0.995612 0.091280
vn -0.020613 0.995612 0.091280
vn 0.003518 0.997514 0.070375
vn -0.040154 0.997727 0.054118
vn -0.051271 0.993699 0.099666
vn -0.040154 0.997727 0.054118
vn -0.030387 0.999222 0.025143
vn -0.040154 0.997727 0.054118
vn -0.051271 0.993699 0.099666
vn -0.020613 0.995612 0.091280
vn 0.173454 0.982720 0.064616
vn 0.087006 0.995954 0.022501
vn 0.070847 0.997475 0.005006
vn 0.087006 0.995954 0.022501
vn 0.173454 0.982720 0.064616
vn 0.096587 0.995116 0.020394
vn 0.039531 0.998201 0.045070
vn 0.008969 0.999007 0.043647
vn 0.003518 0.997514 0.070375
vn 0.008969 0.999007 0.043647
vn 0.039531 0.998201 0.045070
vn 0.042754 0.997992 0.046727
vn 0.008969 0.999007 0.043647
vn -0.040154 0.997727 0.054118
vn 0.003518 0.997514 0.070375
vn -0.040154 0.997727 0.054118
vn 0.008969 0.999007 0.043647
vn -0.041017 0.997621 0.055408
vn -0.030387 0.999222 0.025143
vn -0.041017 0.997621 0.055408
vn -0.061663 0.997358 0.038399
vn -0.041017 0.997621 0.055408
vn -0.030387 0.999222 0.025143
vn -0.040154 0.997727 0.054118
vn 0.096587 0.995116 0.020394
vn 0.105016 0.994364 0.014553
vn 0.087006 0.995954 0.022501
vn 0.105016 0.994364 0.014553
vn 0.096587 0.995116 0.020394
vn 0.093985 0.995574 0.000030
vn 0.042754 0.997992 0.046727
vn 0.012935 0.999233 0.036971
vn 0.008969 0.999007 0.043647
vn 0.012935 0.999233 0.036971
vn 0.042754 0.997992 0.046727
vn 0.032759 0.999096 0.027092
vn 0.008969 0.999007 0.043647
vn 0.012935 0.999233 0.036971
vn -0.041017 0.997621 0.055408
vn -0.041017 0.997621 0.055408
vn 0.012935 0.999233 0.036971
vn -0.045028 0.998772 0.020678
vn -0.061663 0.997358 0.038399
vn -0.045028 0.998772 0.020678
vn -0.095504 0.995401 -0.007437
vn -0.045028 0.998772 0.020678
vn -0.061663 0.997358 0.038399
vn -0.041017 0.997621 0.055408
vn 0.105016 0.994364 0.014553
vn 0.093985 0.995574 0.000030
vn 0.127029 0.991864 -0.008321
vn 0.105016 0.994364 0.014553
vn 0.127029 0.991864 -0.008321
vn 0.119166 0.992873 0.001756
vn 0.032759 0.999096 0.027092
vn 0.011450 0.999635 -0.024487
vn 0.012935 0.999233 0.036971
vn 0.011450 0.999635 -0.024487
vn 0.032759 0.999096 0.027092
vn 0.036835 0.998718 -0.034728
vn 0.012935 0.999233 0.036971
vn 0.011450 0.999635 -0.024487
vn -0.045028 0.998772 0.020678
vn -0.045028 0.998772 0.020678
vn 0.011450 0.999635 -0.024487
vn -0.080595 0.994600 -0.065381
vn -0.095504 0.995401 -0.007437
vn -0.080595 0.994600 -0.065381
vn -0.069996 0.996788 -0.038912
vn -0.080595 0.994600 -0.065381
vn -0.095504 0.995401 -0.007437
vn -0.045028 0.998772 0.020678
vn 0.119166 0.992873 0.001756
vn 0.224526 0.971773 -0.072423
vn 0.138110 0.990373 -0.009289
vn 0.224526 0.971773 -0.072423
vn 0.119166 0.992873 0.001756
vn 0.127029 0.991864 -0.008321
vn 0.036835 0.998718 -0.034728
vn -0.010687 0.997682 -0.067202
vn 0.011450 0.999635 -0.024487
vn -0.010687 0.997682 -0.067202
vn 0.036835 0.998718 -0.034728
vn 0.001586 0.999078 -0.042911
vn 0.011450 0.999635 -0.024487
vn -0.010687 0.997682 -0.067202
vn -0.080595 0.994600 -0.065381
vn -0.080595 0.994600 -0.065381
vn -0.010687 0.997682 -0.067202
vn -0.057368 0.997082 -0.050362
vn -0.069996 0.996788 -0.038912
vn -0.057368 0.997082 -0.050362
vn -0.025035 0.999553 -0.016330
vn -0.057368 0.997082 -0.050362
vn -0.069996 0.996788 -0.038912
vn -0.080595 0.994600 -0.065381
vn 0.224526 0.971773 -0.072423
vn 0.156278 0.981621 -0.109531
vn 0.138110 0.990373 -0.009289
vn 0.224526 0.971773 -0.072423
vn 0.201097 0.953997 -0.222373
vn 0.156278 0.981621 -0.109531
vn 0.015717 0.995553 -0.092879
vn -0.010687 0.997682 -0.067202
vn 0.001586 0.999078 -0.042911
vn -0.010687 0.997682 -0.067202
vn 0.015717 0.995553 -0.092879
vn -0.006128 0.997878 -0.064819
vn -0.010687 0.997682 -0.067202
vn -0.043585 0.997267 -0.059649
vn -0.057368 0.997082 -0.050362
vn -0.043585 0.997267 -0.059649
vn -0.010687 0.997682 -0.067202
vn -0.006128 0.997878 -0.064819
vn -0.057368 0.997082 -0.050362
vn -0.047250 0.995054 -0.087377
vn -0.025035 0.999553 -0.016330
vn -0.047250 0.995054 -0.087377
vn -0.057368 0.997082 -0.050362
vn -0.043585 0.997267 -0.059649
vn 0.015717 0.995553 -0.092879
vn 0.038690 0.991890 -0.121069
vn -0.006128 0.997878 -0.064819
vn -0.006128 0.997878 -0.064819
vn 0.038690 0.991890 -0.121069
vn -0.000000 0.987904 -0.155067
vn -0.006128 0.997878 -0.064819
vn -0.045586 0.993014 -0.108834
vn -0.043585 0.997267 -0.059649
vn -0.045586 0.993014 -0.108834
vn -0.006128 0.997878 -0.064819
vn -0.000000 0.987904 -0.155067
vn -0.043585 0.997267 -0.059649
vn -0.077701 0.988084 -0.132863
vn -0.047250 0.995054 -0.087377
vn -0.077701 0.988084 -0.132863
vn -0.043585 0.997267 -0.059649
vn -0.045586 0.993014 -0.108834
vn 0.038690 0.991890 -0.121069
vn 0.072740 0.981222 -0.178642
vn 0.038977 0.976377 -0.212531
vn -0.000000 0.987904 -0.155067
vn 0.038690 0.991890 -0.121069
vn 0.038977 0.976377 -0.212531
vn -0.000000 0.987904 -0.155067
vn 0.038977 0.976377 -0.212531
vn -0.000000 0.983158 -0.182760
vn -0.000000 0.987904 -0.155067
vn -0.041628 0.976273 -0.212504
vn -0.045586 0.993014 -0.108834
vn -0.041628 0.976273 -0.212504
vn -0.000000 0.987904 -0.155067
vn -0.000000 0.983158 -0.182760
vn -0.077701 0.988084 -0.132863
vn -0.045586 0.993014 -0.108834
vn -0.041628 0.976273 -0.212504
vn -0.025035 0.999553 -0.016330
vn -0.100210 0.992200 -0.074141
vn -0.075790 0.997124 -0.000000
vn -0.100210 0.992200 -0.074141
vn -0.025035 0.999553 -0.016330
vn -0.047250 0.995054 -0.087377
vn -0.073229 0.997236 -0.012563
vn -0.025035 0.999553 -0.016330
vn -0.075790 0.997124 -0.000000
vn -0.025035 0.999553 -0.016330
vn -0.073229 0.997236 -0.012563
vn -0.069996 0.996788 -0.038912
vn -0.082860 0.996551 -0.004552
vn -0.069996 0.996788 -0.038912
vn -0.073229 0.997236 -0.012563
vn -0.069996 0.996788 -0.038912
vn -0.082860 0.996551 -0.004552
vn -0.095504 0.995401 -0.007437
vn -0.083700 0.996404 0.013129
vn -0.095504 0.995401 -0.007437
vn -0.082860 0.996551 -0.004552
vn -0.095504 0.995401 -0.007437
vn -0.083700 0.996404 0.013129
vn -0.061663 0.997358 0.038399
vn -0.069781 0.997544 0.006049
vn -0.061663 0.997358 0.038399
vn -0.083700 0.996404 0.013129
vn -0.061663 0.997358 0.038399
vn -0.069781 0.997544 0.006049
vn -0.030387 0.999222 0.025143
vn -0.051271 0.993699 0.099666
vn -0.111348 0.989990 0.086727
vn -0.171060 0.966329 0.192216
vn -0.171060 0.966329 0.192216
vn -0.058085 0.988680 0.138336
vn -0.051271 0.993699 0.099666
vn 0.042319 0.988948 -0.142095
vn 0.072740 0.981222 -0.178642
vn 0.015717 0.995553 -0.092879
vn 0.015717 0.995553 -0.092879
vn 0.072740 0.981222 -0.178642
vn 0.038690 0.991890 -0.121069
vn 0.042319 0.988948 -0.142095
vn 0.001586 0.999078 -0.042911
vn 0.031391 0.999130 -0.027450
vn 0.001586 0.999078 -0.042911
vn 0.042319 0.988948 -0.142095
vn 0.015717 0.995553 -0.092879
vn 0.036835 0.998718 -0.034728
vn 0.037660 0.999290 -0.000752
vn 0.001586 0.999078 -0.042911
vn 0.037660 0.999290 -0.000752
vn 0.031391 0.999130 -0.027450
vn 0.001586 0.999078 -0.042911
vn 0.032759 0.999096 0.027092
vn 0.061267 0.997922 0.019955
vn 0.036835 0.998718 -0.034728
vn 0.061267 0.997922 0.019955
vn 0.037660 0.999290 -0.000752
vn 0.036835 0.998718 -0.034728
vn 0.042754 0.997992 0.046727
vn 0.038886 0.998245 0.044659
vn 0.032759 0.999096 0.027092
vn 0.038886 0.998245 0.044659
vn 0.061267 0.997922 0.019955
vn 0.032759 0.999096 0.027092
vn 0.039531 0.998201 0.045070
vn 0.019580 0.999627 0.019032
vn 0.042754 0.997992 0.046727
vn 0.019580 0.999627 0.019032
vn 0.038886 0.998245 0.044659
vn 0.042754 0.997992 0.046727
vn 0.019776 0.995784 0.089568
vn 0.047486 0.993579 0.102689
vn 0.039531 0.998201 0.045070
vn 0.047486 0.993579 0.102689
vn 0.019580 0.999627 0.019032
vn 0.039531 0.998201 0.045070
vn 0.020120 0.994721 0.100621
vn 0.058014 0.987422 0.147079
vn 0.019776 0.995784 0.089568
vn 0.058014 0.987422 0.147079
vn 0.047486 0.993579 0.102689
vn 0.019776 0.995784 0.089568
vn 0.201097 0.953997 -0.222373
vn 0.072740 0.981222 -0.178642
vn 0.042319 0.988948 -0.142095
vn 0.042319 0.988948 -0.142095
vn 0.156278 0.981621 -0.109531
vn 0.201097 0.953997 -0.222373
vn 0.037660 0.999290 -0.000752
vn 0.119166 0.992873 0.001756
vn 0.031391 0.999130 -0.027450
vn 0.119166 0.992873 0.001756
vn 0.138110 0.990373 -0.009289
vn 0.031391 0.999130 -0.027450
vn 0.061267 0.997922 0.019955
vn 0.105016 0.994364 0.014553
vn 0.037660 0.999290 -0.000752
vn 0.105016 0.994364 0.014553
vn 0.119166 0.992873 0.001756
vn 0.037660 0.999290 -0.000752
vn 0.038886 0.998245 0.044659
vn 0.087006 0.995954 0.022501
vn 0.061267 0.997922 0.019955
vn 0.087006 0.995954 0.022501
vn 0.105016 0.994364 0.014553
vn 0.061267 0.997922 0.019955
vn 0.019580 0.999627 0.019032
vn 0.070847 0.997475 0.005006
vn 0.038886 0.998245 0.044659
vn 0.070847 0.997475 0.005006
vn 0.087006 0.995954 0.022501
vn 0.038886 0.998245 0.044659
vn -0.150218 0.974386 -0.167350
vn -0.150807 0.987114 -0.053511
vn -0.100210 0.992200 -0.074141
vn -0.150807 0.987114 -0.053511
vn -0.075790 0.997124 -0.000000
vn -0.100210 0.992200 -0.074141
vn -0.073229 0.997236 -0.012563
vn -0.150807 0.987114 -0.053511
vn -0.083757 0.996368 -0.015351
vn -0.150807 0.987114 -0.053511
vn -0.073229 0.997236 -0.012563
vn -0.075790 0.997124 -0.000000
vn -0.082860 0.996551 -0.004552
vn -0.083757 0.996368 -0.015351
vn -0.077343 0.997005 0.000025
vn -0.083757 0.996368 -0.015351
vn -0.082860 0.996551 -0.004552
vn -0.073229 0.997236 -0.012563
vn -0.083700 0.996404 0.013129
vn -0.082860 0.996551 -0.004552
vn -0.084689 0.996284 0.015701
vn -0.084689 0.996284 0.015701
vn -0.082860 0.996551 -0.004552
vn -0.077343 0.997005 0.000025
vn -0.069781 0.997544 0.006049
vn -0.083700 0.996404 0.013129
vn -0.161222 0.985021 0.061166
vn -0.161222 0.985021 0.061166
vn -0.083700 0.996404 0.013129
vn -0.084689 0.996284 0.015701
vn -0.161222 0.985021 0.061166
vn -0.171060 0.966329 0.192216
vn -0.111348 0.989990 0.086727
vn -0.111348 0.989990 0.086727
vn -0.069781 0.997544 0.006049
vn -0.161222 0.985021 0.061166
vn -0.047250 0.995054 -0.087377
vn -0.150218 0.974386 -0.167350
vn -0.100210 0.992200 -0.074141
vn -0.077701 0.988084 -0.132863
vn -0.150218 0.974386 -0.167350
vn -0.047250 0.995054 -0.087377
vn 0.031391 0.999130 -0.027450
vn 0.156278 0.981621 -0.109531
vn 0.042319 0.988948 -0.142095
vn 0.156278 0.981621 -0.109531
vn 0.031391 0.999130 -0.027450
vn 0.138110 0.990373 -0.009289
vn -0.051271 0.993699 0.099666
vn -0.030387 0.999222 0.025143
vn -0.111348 0.989990 0.086727
vn -0.111348 0.989990 0.086727
vn -0.030387 0.999222 0.025143
vn -0.069781 0.997544 0.006049
vn 0.117288 0.988880 0.091430
vn 0.047486 0.993579 0.102689
vn 0.179111 0.963007 0.201339
vn 0.047486 0.993579 0.102689
vn 0.058014 0.987422 0.147079
vn 0.179111 0.963007 0.201339
s off
g pasted__pCylinder1
usemtl pasted__pCylinder1SG
f 1/1/1 2/2/2 3/3/3
f 2/2/4 1/1/5 4/4/6
f 5/5/7 6/6/8 7/7/9
f 6/6/10 5/5/11 8/8/12
f 9/9/13 7/7/14 10/10/15
f 7/7/16 9/9/17 5/5/18
f 8/8/19 11/11/20 6/6/21
f 11/11/22 12/12/23 6/6/24
f 1/1/25 13/13/26 4/4/27
f 14/14/28 13/13/29 1/1/30
f 12/12/31 15/15/32 6/6/33
f 15/15/34 12/12/35 16/16/36
f 6/6/37 15/15/38 7/7/39
f 7/7/40 15/15/41 17/17/42
f 10/10/43 17/17/44 18/18/45
f 17/17/46 10/10/47 7/7/48
f 13/13/49 19/19/50 4/4/51
f 19/19/52 13/13/53 20/20/54
f 16/16/55 21/21/56 15/15/57
f 21/21/58 16/16/59 22/22/60
f 21/21/61 17/17/62 15/15/63
f 17/17/64 21/21/65 23/23/66
f 18/18/67 23/23/68 24/24/69
f 23/23/70 18/18/71 17/17/72
f 20/20/73 25/25/74 19/19/75
f 25/25/76 20/20/77 26/26/78
f 22/22/79 27/27/80 21/21/81
f 27/27/82 22/22/83 28/28/84
f 21/21/85 27/27/86 23/23/87
f 23/23/88 27/27/89 29/29/90
f 24/24/91 29/29/92 30/30/93
f 29/29/94 24/24/95 23/23/96
f 25/25/97 26/26/98 31/31/99
f 25/25/100 31/31/101 32/32/102
f 28/28/103 33/33/104 27/27/105
f 33/33/106 28/28/107 34/34/108
f 27/27/109 33/33/110 29/29/111
f 29/29/112 33/33/113 35/35/114
f 30/30/115 35/35/116 36/36/117
f 35/35/118 30/30/119 29/29/120
f 32/32/121 37/37/122 38/38/123
f 37/37/124 32/32/125 31/31/126
f 34/34/127 39/39/128 33/33/129
f 39/39/130 34/34/131 40/40/132
f 33/33/133 39/39/134 35/35/135
f 35/35/136 39/39/137 41/41/138
f 36/36/139 41/41/140 42/42/141
f 41/41/142 36/36/143 35/35/144
f 37/37/145 43/43/146 38/38/147
f 37/37/148 44/44/149 43/43/150
f 45/45/151 39/39/152 40/40/153
f 39/39/154 45/45/155 46/46/156
f 39/39/157 47/47/158 41/41/159
f 47/47/160 39/39/161 46/46/162
f 41/41/163 48/48/164 42/42/165
f 48/48/166 41/41/167 47/47/168
f 45/45/169 49/49/170 46/46/171
f 46/46/172 49/49/173 50/50/174
f 46/46/175 51/51/176 47/47/177
f 51/51/178 46/46/179 50/50/180
f 47/47/181 52/52/182 48/48/183
f 52/52/184 47/47/185 51/51/186
f 49/49/187 53/53/188 54/54/189
f 50/50/190 49/49/191 54/54/192
f 50/50/193 54/54/194 55/55/195
f 50/50/196 56/56/197 51/51/198
f 56/56/199 50/50/200 55/55/201
f 52/52/202 51/51/203 56/56/204
f 42/42/205 57/57/206 58/58/207
f 57/57/208 42/42/209 48/48/210
f 59/59/211 42/42/212 58/58/213
f 42/42/214 59/59/215 36/36/216
f 60/60/217 36/36/218 59/59/219
f 36/36/220 60/60/221 30/30/222
f 61/61/223 30/30/224 60/60/225
f 30/30/226 61/61/227 24/24/228
f 62/62/229 24/24/230 61/61/231
f 24/24/232 62/62/233 18/18/234
f 10/10/235 63/63/236 64/64/237
f 64/64/238 9/9/239 10/10/240
f 65/65/241 53/53/242 45/45/243
f 45/45/244 53/53/245 49/49/246
f 65/65/247 40/40/248 66/66/249
f 40/40/250 65/65/251 45/45/252
f 34/34/253 67/67/254 40/40/255
f 67/67/256 66/66/257 40/40/258
f 28/28/259 68/68/260 34/34/261
f 68/68/262 67/67/263 34/34/264
f 22/22/265 69/69/266 28/28/267
f 69/69/268 68/68/269 28/28/270
f 16/16/271 2/2/272 22/22/273
f 2/2/274 69/69/275 22/22/276
f 12/12/277 3/3/278 16/16/279
f 3/3/280 2/2/281 16/16/282
f 11/11/283 70/70/284 12/12/285
f 70/70/286 3/3/287 12/12/288
f 44/44/289 53/53/290 65/65/291
f 65/65/292 43/43/293 44/44/294
f 67/67/295 32/32/296 66/66/297
f 32/32/298 38/38/299 66/66/300
f 68/68/301 25/25/302 67/67/303
f 25/25/304 32/32/305 67/67/306
f 69/69/307 19/19/308 68/68/309
f 19/19/310 25/25/311 68/68/312
f 2/2/313 4/4/314 69/69/315
f 4/4/316 19/19/317 69/69/318
f 71/71/319 72/72/320 57/57/321
f 72/72/322 58/58/323 57/57/324
f 59/59/325 72/72/326 73/73/327
f 72/72/328 59/59/329 58/58/330
f 60/60/331 73/73/332 74/74/333
f 73/73/334 60/60/335 59/59/336
f 61/61/337 60/60/338 75/75/339
f 75/75/340 60/60/341 74/74/342
f 62/62/343 61/61/344 76/76/345
f 76/76/346 61/61/347 75/75/348
f 76/76/349 64/64/350 63/63/351
f 63/63/352 62/62/353 76/76/354
f 48/48/355 71/71/356 57/57/357
f 52/52/358 71/71/359 48/48/360
f 66/66/361 43/43/362 65/65/363
f 43/43/364 66/66/365 38/38/366
f 10/10/367 18/18/368 63/63/369
f 63/63/370 18/18/371 62/62/372
f 1/1/373 3/3/374 14/14/375
f 3/3/376 70/70/377 14/14/378
