# This file uses centimeters as units for non-parametric coordinates.

mtllib krawedzKotlaLewyBok.mtl
g default
v -26.213621 39.651939 6.134946
v -26.213614 39.651939 23.169594
v -27.287817 39.651939 16.387310
v -27.287828 39.651939 12.917234
v -27.710102 40.610615 5.648720
v -27.710089 40.610615 23.655823
v -28.845627 40.610615 15.650904
v -28.845627 40.610615 13.653643
v -29.678123 44.232361 5.009278
v -30.359325 46.849064 4.787945
v -30.359325 46.849064 24.516598
v -29.678110 44.232361 24.295265
v -31.603378 46.849064 16.661705
v -30.959818 43.172634 16.316393
v -30.959818 43.172634 12.988155
v -31.603378 46.849064 12.642839
v -28.258783 47.435387 5.470446
v -28.258766 47.435387 23.834093
v -29.416771 47.435387 16.522676
v -29.416771 47.435387 12.781871
v -23.832855 39.652149 6.908511
v -23.832829 39.652149 22.396030
v -24.809486 39.652149 16.229731
v -24.809486 39.652149 13.074816
v -27.704720 39.461586 14.652272
v -29.135710 40.425518 14.652272
v -31.921637 46.849064 14.652272
v -31.205400 44.232361 14.652272
v -29.713015 47.435387 14.652275
v -25.059338 39.652149 14.652275
vt 0.603455 0.759900
vt 0.593156 0.758913
vt 0.606651 0.715034
vt 0.614317 0.723089
vt 0.623059 0.705486
vt 0.611917 0.704332
vt 0.640954 0.668149
vt 0.647677 0.676041
vt 0.685070 0.117013
vt 0.683623 0.101800
vt 0.728549 0.100296
vt 0.730644 0.121362
vt 0.749267 0.121377
vt 0.751390 0.100312
vt 0.796289 0.101839
vt 0.794866 0.117056
vt 0.254517 0.145847
vt 0.248569 0.157298
vt 0.208713 0.144960
vt 0.211337 0.132425
vt 0.188705 0.129297
vt 0.187856 0.142071
vt 0.146355 0.144090
vt 0.143497 0.131522
vt 0.214635 0.378489
vt 0.162814 0.377562
vt 0.163063 0.340789
vt 0.213958 0.340352
vt 0.213871 0.321524
vt 0.163024 0.321809
vt 0.162184 0.285355
vt 0.213958 0.283045
vt 0.608175 0.709146
vt 0.617121 0.713486
vt 0.739969 0.099851
vt 0.739958 0.115124
vt 0.198501 0.141875
vt 0.200268 0.129104
vt 0.163239 0.331276
vt 0.214776 0.330942
vt 0.747403 0.140397
vt 0.792960 0.140417
vt 0.686944 0.140393
vt 0.732510 0.140371
vn -0.534664 -0.841279 0.079898
vn -0.534664 -0.841279 0.079898
vn -0.534664 -0.841279 0.079898
vn -0.534664 -0.841279 0.079898
vn -0.816712 -0.549488 -0.176195
vn -0.526500 -0.796563 -0.297128
vn -0.678144 -0.698077 -0.229805
vn -0.777745 -0.577436 -0.248356
vn -0.875777 -0.380374 0.297205
vn -0.832382 0.480763 0.275695
vn -0.846781 0.518782 0.117585
vn -0.669351 -0.116788 0.733709
vn -0.669355 -0.116790 -0.733705
vn -0.846781 0.518783 -0.117585
vn -0.832381 0.480764 -0.275694
vn -0.875778 -0.380373 -0.297204
vn -0.832382 0.480763 0.275695
vn 0.307032 0.946456 -0.099760
vn 0.373123 0.925898 -0.059098
vn -0.846781 0.518782 0.117585
vn -0.846781 0.518783 -0.117585
vn 0.373123 0.925898 0.059097
vn 0.307031 0.946456 0.099760
vn -0.832381 0.480764 -0.275694
vn 0.307032 0.946456 -0.099760
vn 0.911941 0.283842 -0.296307
vn 0.949867 0.274079 -0.150446
vn 0.373123 0.925898 -0.059098
vn 0.373123 0.925898 0.059097
vn 0.949867 0.274078 0.150444
vn 0.911941 0.283841 0.296307
vn 0.307031 0.946456 0.099760
vn -0.526497 -0.796565 0.297130
vn -0.397195 -0.917734 -0.000002
vn -0.835972 -0.548772 0.000002
vn -0.816711 -0.549488 0.176197
vn -0.846781 0.518782 0.117585
vn -0.871556 0.490296 -0.000000
vn -0.883960 0.467562 -0.000003
vn -0.669351 -0.116788 0.733709
vn 0.373123 0.925898 -0.059098
vn 0.322832 0.946456 0.000000
vn -0.871556 0.490296 -0.000000
vn -0.846781 0.518782 0.117585
vn 0.949867 0.274079 -0.150446
vn 0.958872 0.283840 -0.000001
vn 0.322832 0.946456 0.000000
vn 0.373123 0.925898 -0.059098
vn 0.322832 0.946456 0.000000
vn 0.958872 0.283840 -0.000001
vn 0.949867 0.274078 0.150444
vn 0.373123 0.925898 0.059097
vn -0.871556 0.490296 -0.000000
vn 0.322832 0.946456 0.000000
vn 0.373123 0.925898 0.059097
vn -0.846781 0.518783 -0.117585
vn -0.883960 0.467562 -0.000003
vn -0.871556 0.490296 -0.000000
vn -0.846781 0.518783 -0.117585
vn -0.669355 -0.116790 -0.733705
vn -0.835972 -0.548772 0.000002
vn -0.397195 -0.917734 -0.000002
vn -0.526500 -0.796563 -0.297128
vn -0.816712 -0.549488 -0.176195
vn -0.526500 -0.796563 -0.297128
vn -0.669355 -0.116790 -0.733705
vn -0.875778 -0.380373 -0.297204
vn -0.678144 -0.698077 -0.229805
vn -0.678143 -0.698077 0.229806
vn -0.875777 -0.380374 0.297205
vn -0.669351 -0.116788 0.733709
vn -0.526497 -0.796565 0.297130
s off
g krawedzKotla:lewyBok
usemtl krawedzKotla:blinn1SG
f 2/1/1 6/2/2 7/3/3 3/4/4
f 4/5/5 8/6/6 5/7/7 1/8/8
f 12/9/9 11/10/10 13/11/11 14/12/12
f 15/13/13 16/14/14 10/15/15 9/16/16
f 11/17/17 18/18/18 19/19/19 13/20/20
f 16/21/21 20/22/22 17/23/23 10/24/24
f 18/25/25 22/26/26 23/27/27 19/28/28
f 20/29/29 24/30/30 21/31/31 17/32/32
f 7/3/33 26/33/34 25/34/35 3/4/36
f 13/11/37 27/35/38 28/36/39 14/12/40
f 19/19/41 29/37/42 27/38/43 13/20/44
f 23/27/45 30/39/46 29/40/47 19/28/48
f 29/40/49 30/39/50 24/30/51 20/29/52
f 27/38/53 29/37/54 20/22/55 16/21/56
f 28/36/57 27/35/58 16/14/59 15/13/60
f 25/34/61 26/33/62 8/6/63 4/5/64
f 8/41/65 15/13/66 9/16/67 5/42/68
f 6/43/69 12/9/70 14/12/71 7/44/72
