# This file uses centimeters as units for non-parametric coordinates.

mtllib krawedzKotlaPrawyD.mtl
g default
v 8.517319 39.651939 40.865883
v 16.200907 39.651939 36.950909
v 22.298639 39.651939 30.853176
v 9.003550 40.610615 42.362358
v 17.125774 40.610615 38.223881
v 23.571609 40.610615 31.778055
v 9.642995 44.232361 44.330383
v 9.864328 46.849064 45.011597
v 18.342070 44.232361 39.897957
v 18.763079 46.849064 40.477417
v 25.245686 44.232361 32.994339
v 25.825148 46.849064 33.415348
v 9.181824 47.435387 42.911037
v 17.464893 47.435387 38.690632
v 24.038361 47.435387 32.117172
v 7.743759 39.652149 38.485100
v 14.729516 39.652149 34.925690
v 20.273422 39.652149 29.381786
v 26.213614 39.651939 23.169594
v 27.710089 40.610615 23.655823
v 29.678110 44.232361 24.295265
v 30.359325 46.849064 24.516598
v 28.258766 47.435387 23.834093
v 23.832829 39.652149 22.396030
vt 0.737786 0.938127
vt 0.785203 0.947879
vt 0.784929 0.958298
vt 0.734610 0.948035
vt 0.832868 0.941042
vt 0.836247 0.950856
vt 0.875194 0.918007
vt 0.881832 0.925970
vt 0.559022 0.932909
vt 0.565821 0.987486
vt 0.550746 0.990000
vt 0.543791 0.934170
vt 0.917614 0.170566
vt 0.903039 0.223443
vt 0.888087 0.220347
vt 0.902954 0.165927
vt 0.895100 0.277609
vt 0.879887 0.276161
vt 0.332458 0.393238
vt 0.307806 0.444236
vt 0.297640 0.436522
vt 0.320299 0.389027
vt 0.266452 0.483039
vt 0.259689 0.472069
vt 0.214239 0.504829
vt 0.211710 0.492191
vt 0.252533 0.412471
vt 0.271254 0.372580
vt 0.990000 0.599750
vt 0.938218 0.606561
vt 0.932812 0.554503
vt 0.977586 0.550238
vt 0.888341 0.607860
vt 0.887413 0.556040
vt 0.925947 0.228320
vt 0.918480 0.279482
vt 0.939670 0.178814
vt 0.781450 0.981642
vt 0.727406 0.970280
vn 0.238349 -0.851096 0.467788
vn 0.238349 -0.851096 0.467788
vn 0.238349 -0.851096 0.467788
vn 0.238349 -0.851096 0.467788
vn 0.479110 -0.579305 0.659438
vn 0.659438 -0.579305 0.479110
vn 0.589503 -0.684869 0.428300
vn 0.428299 -0.684869 0.589504
vn 0.659438 -0.579305 0.479110
vn 0.777744 -0.577437 0.248357
vn 0.678143 -0.698077 0.229806
vn 0.589503 -0.684869 0.428300
vn 0.285998 -0.378726 0.880211
vn 0.544001 -0.378725 0.748752
vn 0.518703 0.470370 0.713932
vn 0.272698 0.470371 0.839278
vn 0.544001 -0.378725 0.748752
vn 0.748752 -0.378725 0.544001
vn 0.713932 0.470370 0.518703
vn 0.518703 0.470370 0.713932
vn 0.748752 -0.378725 0.544001
vn 0.875777 -0.380374 0.297205
vn 0.832382 0.480763 0.275695
vn 0.713932 0.470370 0.518703
vn 0.272698 0.470371 0.839278
vn 0.518703 0.470370 0.713932
vn -0.189754 0.946457 -0.261175
vn -0.099760 0.946456 -0.307032
vn 0.518703 0.470370 0.713932
vn 0.713932 0.470370 0.518703
vn -0.261174 0.946457 -0.189754
vn -0.189754 0.946457 -0.261175
vn 0.713932 0.470370 0.518703
vn 0.832382 0.480763 0.275695
vn -0.307032 0.946456 -0.099760
vn -0.261174 0.946457 -0.189754
vn -0.099760 0.946456 -0.307032
vn -0.189754 0.946457 -0.261175
vn -0.563609 0.283842 -0.775744
vn -0.296307 0.283841 -0.911941
vn -0.189754 0.946457 -0.261175
vn -0.261174 0.946457 -0.189754
vn -0.775743 0.283843 -0.563610
vn -0.563609 0.283842 -0.775744
vn -0.261174 0.946457 -0.189754
vn -0.307032 0.946456 -0.099760
vn -0.911941 0.283842 -0.296307
vn -0.775743 0.283843 -0.563610
vn 0.589503 -0.684869 0.428300
vn 0.678143 -0.698077 0.229806
vn 0.875777 -0.380374 0.297205
vn 0.748752 -0.378725 0.544001
vn 0.428299 -0.684869 0.589504
vn 0.589503 -0.684869 0.428300
vn 0.748752 -0.378725 0.544001
vn 0.544001 -0.378725 0.748752
vn 0.225170 -0.684870 0.693002
vn 0.428299 -0.684869 0.589504
vn 0.544001 -0.378725 0.748752
vn 0.285998 -0.378726 0.880211
s off
g krawedzKotla:prawyD
usemtl krawedzKotla:blinn1SG
f 1/1/1 2/2/2 5/3/3 4/4/4
f 2/2/5 3/5/6 6/6/7 5/3/8
f 3/5/9 19/7/10 20/8/11 6/6/12
f 7/9/13 9/10/14 10/11/15 8/12/16
f 9/13/17 11/14/18 12/15/19 10/16/20
f 11/14/21 21/17/22 22/18/23 12/15/24
f 8/19/25 10/20/26 14/21/27 13/22/28
f 10/20/29 12/23/30 15/24/31 14/21/32
f 12/23/33 22/25/34 23/26/35 15/24/36
f 13/22/37 14/21/38 17/27/39 16/28/40
f 14/29/41 15/30/42 18/31/43 17/32/44
f 15/30/45 23/33/46 24/34/47 18/31/48
f 6/35/49 20/36/50 21/17/51 11/14/52
f 5/37/53 6/35/54 11/14/55 9/13/56
f 4/4/57 5/3/58 9/38/59 7/39/60
