# This file uses centimeters as units for non-parametric coordinates.

mtllib krawedzKotlaSrodekG.mtl
g default
v 8.517324 39.651939 -11.561353
v 0.000000 39.651939 -12.910372
v 9.003560 40.610615 -13.057833
v 0.000000 40.610615 -14.483852
v 9.643000 44.232361 -15.025844
v 9.864335 46.849064 -15.707055
v 0.000000 44.232361 -16.553129
v 0.000000 46.849064 -17.269381
v 9.181824 47.435387 -13.606513
v 0.000000 47.435387 -15.060756
v 7.743761 39.652149 -9.180576
v 0.000000 39.652149 -10.407068
v -8.517324 39.651939 -11.561353
v -9.003560 40.610615 -13.057833
v -9.864335 46.849064 -15.707055
v -9.643000 44.232361 -15.025844
v -9.181824 47.435387 -13.606513
v -7.743761 39.652149 -9.180576
vt 0.869797 0.703674
vt 0.830253 0.674886
vt 0.835457 0.665868
vt 0.876804 0.696033
vt 0.688574 0.728975
vt 0.686302 0.783927
vt 0.671019 0.783927
vt 0.673343 0.727714
vt 0.012264 0.354877
vt 0.012090 0.298552
vt 0.024891 0.299932
vt 0.025115 0.353128
vt 0.075801 0.305397
vt 0.076034 0.348118
vt 0.847213 0.645522
vt 0.892360 0.678491
vt 0.785482 0.655173
vt 0.788575 0.645269
vt 0.688574 0.838879
vt 0.673343 0.840140
vt 0.024388 0.243561
vt 0.036547 0.248033
vt 0.085189 0.263730
vt 0.796044 0.623004
vn 0.082130 -0.851096 -0.518546
vn 0.082130 -0.851096 -0.518546
vn 0.082130 -0.851096 -0.518546
vn 0.082130 -0.851096 -0.518546
vn 0.285998 -0.378725 -0.880212
vn 0.000000 -0.378725 -0.925509
vn -0.000000 0.470372 -0.882468
vn 0.272697 0.470371 -0.839278
vn 0.272697 0.470371 -0.839278
vn -0.000000 0.470372 -0.882468
vn 0.000000 0.946456 0.322832
vn -0.099760 0.946456 0.307031
vn -0.099760 0.946456 0.307031
vn 0.000000 0.946456 0.322832
vn 0.000000 0.283841 0.958871
vn -0.296307 0.283841 0.911941
vn 0.225170 -0.684869 -0.693003
vn 0.000000 -0.684869 -0.728666
vn 0.000000 -0.378725 -0.925509
vn 0.285998 -0.378725 -0.880212
vn -0.251883 -0.579305 -0.775216
vn -0.225170 -0.684869 -0.693003
vn 0.000000 -0.684869 -0.728666
vn 0.000000 -0.579306 -0.815110
vn -0.285998 -0.378725 -0.880212
vn -0.272697 0.470371 -0.839278
vn -0.000000 0.470372 -0.882468
vn 0.000000 -0.378725 -0.925509
vn -0.272697 0.470371 -0.839278
vn 0.099760 0.946457 0.307031
vn 0.000000 0.946456 0.322832
vn -0.000000 0.470372 -0.882468
vn 0.099760 0.946457 0.307031
vn 0.296307 0.283841 0.911941
vn 0.000000 0.283841 0.958871
vn 0.000000 0.946456 0.322832
vn -0.225170 -0.684869 -0.693003
vn -0.285998 -0.378725 -0.880212
vn 0.000000 -0.378725 -0.925509
vn 0.000000 -0.684869 -0.728666
s off
g krawedzKotla:srodekG
usemtl krawedzKotla:blinn1SG
f 1/1/1 2/2/2 4/3/3 3/4/4
f 5/5/5 7/6/6 8/7/7 6/8/8
f 6/9/9 8/10/10 10/11/11 9/12/12
f 9/12/13 10/11/14 12/13/15 11/14/16
f 3/4/17 4/3/18 7/15/19 5/16/20
f 13/17/21 14/18/22 4/3/23 2/2/24
f 16/19/25 15/20/26 8/7/27 7/6/28
f 15/21/29 17/22/30 10/11/31 8/10/32
f 17/22/33 18/23/34 12/13/35 10/11/36
f 14/18/37 16/24/38 7/15/39 4/3/40
