# This file uses centimeters as units for non-parametric coordinates.

mtllib krawedzKotlaPrawyBok.mtl
g default
v 26.213621 39.651939 6.134946
v 26.213614 39.651939 23.169594
v 27.287817 39.651939 16.387310
v 27.287828 39.651939 12.917234
v 27.710102 40.610615 5.648720
v 27.710089 40.610615 23.655823
v 28.845627 40.610615 15.650904
v 28.845627 40.610615 13.653643
v 29.678123 44.232361 5.009278
v 30.359325 46.849064 4.787945
v 29.678110 44.232361 24.295265
v 30.359325 46.849064 24.516598
v 30.959818 43.172634 16.316393
v 31.603378 46.849064 16.661705
v 30.959818 43.172634 12.988155
v 31.603378 46.849064 12.642839
v 28.258783 47.435387 5.470446
v 28.258766 47.435387 23.834093
v 29.416771 47.435387 16.522676
v 29.416771 47.435387 12.781871
v 23.832855 39.652149 6.908511
v 23.832829 39.652149 22.396030
v 24.809486 39.652149 16.229731
v 24.809486 39.652149 13.074816
v 27.704720 39.461586 14.652272
v 29.135710 40.425518 14.652272
v 31.205400 44.232361 14.652272
v 31.921637 46.849064 14.652272
v 29.713015 47.435387 14.652275
v 25.059338 39.652149 14.652275
vt 0.875194 0.918007
vt 0.900122 0.888902
vt 0.911147 0.890228
vt 0.881832 0.925970
vt 0.908732 0.871400
vt 0.919111 0.834111
vt 0.929403 0.835605
vt 0.916458 0.879570
vt 0.895100 0.277609
vt 0.899449 0.323182
vt 0.878383 0.321087
vt 0.879887 0.276161
vt 0.899463 0.341805
vt 0.895143 0.387404
vt 0.879927 0.388827
vt 0.878398 0.343929
vt 0.214239 0.504829
vt 0.169235 0.506631
vt 0.170255 0.493861
vt 0.211710 0.492191
vt 0.146715 0.503204
vt 0.103995 0.489273
vt 0.109833 0.477765
vt 0.149488 0.490690
vt 0.888341 0.607860
vt 0.850203 0.607185
vt 0.850640 0.556289
vt 0.887413 0.556040
vt 0.831375 0.607097
vt 0.792895 0.607185
vt 0.795205 0.555411
vt 0.831659 0.556251
vt 0.906031 0.880955
vt 0.914906 0.885458
vt 0.893210 0.332496
vt 0.877937 0.332508
vt 0.157704 0.506680
vt 0.159635 0.493922
vt 0.840792 0.608003
vt 0.841126 0.556466
vt 0.918483 0.339940
vt 0.918504 0.385498
vt 0.918480 0.279482
vt 0.918457 0.325049
vn 0.534664 -0.841279 0.079898
vn 0.534664 -0.841279 0.079898
vn 0.534664 -0.841279 0.079898
vn 0.534664 -0.841279 0.079898
vn 0.816712 -0.549488 -0.176195
vn 0.777745 -0.577436 -0.248356
vn 0.678144 -0.698077 -0.229805
vn 0.526500 -0.796563 -0.297128
vn 0.875777 -0.380374 0.297205
vn 0.669351 -0.116788 0.733709
vn 0.846781 0.518782 0.117585
vn 0.832382 0.480763 0.275695
vn 0.669355 -0.116790 -0.733705
vn 0.875778 -0.380373 -0.297204
vn 0.832381 0.480764 -0.275694
vn 0.846781 0.518783 -0.117585
vn 0.832382 0.480763 0.275695
vn 0.846781 0.518782 0.117585
vn -0.373123 0.925898 -0.059098
vn -0.307032 0.946456 -0.099760
vn 0.846781 0.518783 -0.117585
vn 0.832381 0.480764 -0.275694
vn -0.307031 0.946457 0.099760
vn -0.373123 0.925898 0.059097
vn -0.307032 0.946456 -0.099760
vn -0.373123 0.925898 -0.059098
vn -0.949867 0.274079 -0.150446
vn -0.911941 0.283842 -0.296307
vn -0.373123 0.925898 0.059097
vn -0.307031 0.946457 0.099760
vn -0.911941 0.283841 0.296307
vn -0.949867 0.274078 0.150444
vn 0.526497 -0.796565 0.297130
vn 0.816711 -0.549488 0.176197
vn 0.835972 -0.548772 0.000002
vn 0.397195 -0.917734 -0.000002
vn 0.846781 0.518782 0.117585
vn 0.669351 -0.116788 0.733709
vn 0.883960 0.467562 -0.000003
vn 0.871556 0.490295 0.000000
vn -0.373123 0.925898 -0.059098
vn 0.846781 0.518782 0.117585
vn 0.871556 0.490295 0.000000
vn -0.322832 0.946456 -0.000000
vn -0.949867 0.274079 -0.150446
vn -0.373123 0.925898 -0.059098
vn -0.322832 0.946456 -0.000000
vn -0.958872 0.283840 -0.000001
vn -0.322832 0.946456 -0.000000
vn -0.373123 0.925898 0.059097
vn -0.949867 0.274078 0.150444
vn -0.958872 0.283840 -0.000001
vn 0.871556 0.490295 0.000000
vn 0.846781 0.518783 -0.117585
vn -0.373123 0.925898 0.059097
vn -0.322832 0.946456 -0.000000
vn 0.883960 0.467562 -0.000003
vn 0.669355 -0.116790 -0.733705
vn 0.846781 0.518783 -0.117585
vn 0.871556 0.490295 0.000000
vn 0.835972 -0.548772 0.000002
vn 0.816712 -0.549488 -0.176195
vn 0.526500 -0.796563 -0.297128
vn 0.397195 -0.917734 -0.000002
vn 0.526500 -0.796563 -0.297128
vn 0.678144 -0.698077 -0.229805
vn 0.875778 -0.380373 -0.297204
vn 0.669355 -0.116790 -0.733705
vn 0.678143 -0.698077 0.229806
vn 0.526497 -0.796565 0.297130
vn 0.669351 -0.116788 0.733709
vn 0.875777 -0.380374 0.297205
s off
g krawedzKotla:prawyBok
usemtl krawedzKotla:blinn1SG
f 2/1/1 3/2/2 7/3/3 6/4/4
f 4/5/5 1/6/6 5/7/7 8/8/8
f 11/9/9 13/10/10 14/11/11 12/12/12
f 15/13/13 9/14/14 10/15/15 16/16/16
f 12/17/17 14/18/18 19/19/19 18/20/20
f 16/21/21 10/22/22 17/23/23 20/24/24
f 18/25/25 19/26/26 23/27/27 22/28/28
f 20/29/29 17/30/30 21/31/31 24/32/32
f 7/3/33 3/2/34 25/33/35 26/34/36
f 14/11/37 13/10/38 27/35/39 28/36/40
f 19/19/41 14/18/42 28/37/43 29/38/44
f 23/27/45 19/26/46 29/39/47 30/40/48
f 29/39/49 20/29/50 24/32/51 30/40/52
f 28/37/53 16/21/54 20/24/55 29/38/56
f 27/35/57 15/13/58 16/16/59 28/36/60
f 25/33/61 4/5/62 8/8/63 26/34/64
f 8/41/65 5/42/66 9/14/67 15/13/68
f 6/43/69 7/44/70 13/10/71 11/9/72
