# This file uses centimeters as units for non-parametric coordinates.

mtllib krawedzKotlaLewyD.mtl
g default
v -8.517319 39.651939 40.865883
v -16.200907 39.651939 36.950909
v -22.298639 39.651939 30.853176
v -9.003550 40.610615 42.362358
v -17.125774 40.610615 38.223881
v -23.571609 40.610615 31.778055
v -9.864328 46.849064 45.011597
v -9.642995 44.232361 44.330383
v -18.763079 46.849064 40.477417
v -18.342070 44.232361 39.897957
v -25.825148 46.849064 33.415348
v -25.245686 44.232361 32.994339
v -9.181824 47.435387 42.911037
v -17.464893 47.435387 38.690632
v -24.038361 47.435387 32.117172
v -7.743759 39.652149 38.485100
v -14.729516 39.652149 34.925690
v -20.273422 39.652149 29.381786
v -27.710089 40.610615 23.655823
v -26.213614 39.651939 23.169594
v -29.678110 44.232361 24.295265
v -30.359325 46.849064 24.516598
v -28.258766 47.435387 23.834093
v -23.832829 39.652149 22.396030
vt 0.654089 0.889386
vt 0.647130 0.897098
vt 0.613486 0.858567
vt 0.622171 0.852830
vt 0.594833 0.810502
vt 0.604873 0.807997
vt 0.593156 0.758913
vt 0.603455 0.759900
vt 0.559022 0.823005
vt 0.543791 0.821744
vt 0.550746 0.765914
vt 0.565821 0.768428
vt 0.578027 0.139524
vt 0.573388 0.124863
vt 0.627810 0.109998
vt 0.630904 0.124951
vt 0.683623 0.101800
vt 0.685070 0.117013
vt 0.344600 0.282000
vt 0.331791 0.283367
vt 0.319878 0.231816
vt 0.331729 0.226980
vt 0.290798 0.188289
vt 0.300299 0.179550
vt 0.248569 0.157298
vt 0.254517 0.145847
vt 0.280327 0.288603
vt 0.270689 0.245583
vt 0.206526 0.480149
vt 0.157014 0.467736
vt 0.161278 0.422963
vt 0.213337 0.428367
vt 0.162814 0.377562
vt 0.214635 0.378489
vt 0.635781 0.147860
vt 0.686944 0.140393
vt 0.586274 0.161580
vt 0.631559 0.914503
vt 0.594946 0.873225
vn -0.238349 -0.851096 0.467788
vn -0.238349 -0.851096 0.467788
vn -0.238349 -0.851096 0.467788
vn -0.238349 -0.851096 0.467788
vn -0.479110 -0.579305 0.659439
vn -0.428299 -0.684869 0.589504
vn -0.589503 -0.684868 0.428300
vn -0.659438 -0.579305 0.479110
vn -0.659438 -0.579305 0.479110
vn -0.589503 -0.684868 0.428300
vn -0.678143 -0.698077 0.229806
vn -0.777744 -0.577437 0.248357
vn -0.285998 -0.378726 0.880211
vn -0.272698 0.470371 0.839278
vn -0.518703 0.470370 0.713932
vn -0.544001 -0.378725 0.748752
vn -0.544001 -0.378725 0.748752
vn -0.518703 0.470370 0.713932
vn -0.713932 0.470370 0.518703
vn -0.748752 -0.378725 0.544001
vn -0.748752 -0.378725 0.544001
vn -0.713932 0.470370 0.518703
vn -0.832382 0.480763 0.275695
vn -0.875777 -0.380374 0.297205
vn -0.272698 0.470371 0.839278
vn 0.099760 0.946456 -0.307032
vn 0.189754 0.946457 -0.261175
vn -0.518703 0.470370 0.713932
vn -0.518703 0.470370 0.713932
vn 0.189754 0.946457 -0.261175
vn 0.261174 0.946457 -0.189754
vn -0.713932 0.470370 0.518703
vn -0.713932 0.470370 0.518703
vn 0.261174 0.946457 -0.189754
vn 0.307032 0.946456 -0.099760
vn -0.832382 0.480763 0.275695
vn 0.099760 0.946456 -0.307032
vn 0.296307 0.283841 -0.911941
vn 0.563609 0.283842 -0.775744
vn 0.189754 0.946457 -0.261175
vn 0.189754 0.946457 -0.261175
vn 0.563609 0.283842 -0.775744
vn 0.775743 0.283843 -0.563610
vn 0.261174 0.946457 -0.189754
vn 0.261174 0.946457 -0.189754
vn 0.775743 0.283843 -0.563610
vn 0.911941 0.283842 -0.296307
vn 0.307032 0.946456 -0.099760
vn -0.589503 -0.684868 0.428300
vn -0.748752 -0.378725 0.544001
vn -0.875777 -0.380374 0.297205
vn -0.678143 -0.698077 0.229806
vn -0.428299 -0.684869 0.589504
vn -0.544001 -0.378725 0.748752
vn -0.748752 -0.378725 0.544001
vn -0.589503 -0.684868 0.428300
vn -0.225170 -0.684870 0.693002
vn -0.285998 -0.378726 0.880211
vn -0.544001 -0.378725 0.748752
vn -0.428299 -0.684869 0.589504
s off
g krawedzKotla:lewyD
usemtl krawedzKotla:blinn1SG
f 1/1/1 4/2/2 5/3/3 2/4/4
f 2/4/5 5/3/6 6/5/7 3/6/8
f 3/6/9 6/5/10 19/7/11 20/8/12
f 8/9/13 7/10/14 9/11/15 10/12/16
f 10/13/17 9/14/18 11/15/19 12/16/20
f 12/16/21 11/15/22 22/17/23 21/18/24
f 7/19/25 13/20/26 14/21/27 9/22/28
f 9/22/29 14/21/30 15/23/31 11/24/32
f 11/24/33 15/23/34 23/25/35 22/26/36
f 13/20/37 16/27/38 17/28/39 14/21/40
f 14/29/41 17/30/42 18/31/43 15/32/44
f 15/32/45 18/31/46 24/33/47 23/34/48
f 6/35/49 12/16/50 21/18/51 19/36/52
f 5/37/53 10/13/54 12/16/55 6/35/56
f 4/2/57 8/38/58 10/39/59 5/3/60
